<svg width="262" height="78" viewBox="0 0 262 78" fill="none" xmlns="http://www.w3.org/2000/svg">
<g filter="url(#filter0_d_475_5479)">
<rect x="16" y="8" width="230" height="46" rx="8" fill="#141718"/>
<path d="M92.3317 37H90.468L94.6555 25.3636H96.6839L100.871 37H99.0078L95.718 27.4773H95.6271L92.3317 37ZM92.6442 32.4432H98.6896V33.9205H92.6442V32.4432ZM105.142 37.1705C104.437 37.1705 103.809 36.9905 103.256 36.6307C102.706 36.267 102.274 35.75 101.96 35.0795C101.649 34.4053 101.494 33.5966 101.494 32.6534C101.494 31.7102 101.651 30.9034 101.966 30.233C102.284 29.5625 102.72 29.0492 103.273 28.6932C103.826 28.3371 104.453 28.1591 105.153 28.1591C105.695 28.1591 106.131 28.25 106.46 28.4318C106.793 28.6098 107.051 28.8182 107.233 29.0568C107.418 29.2955 107.562 29.5057 107.665 29.6875H107.767V25.3636H109.466V37H107.807V35.642H107.665C107.562 35.8277 107.415 36.0398 107.221 36.2784C107.032 36.517 106.771 36.7254 106.437 36.9034C106.104 37.0814 105.672 37.1705 105.142 37.1705ZM105.517 35.7216C106.006 35.7216 106.418 35.5928 106.756 35.3352C107.096 35.0739 107.354 34.7121 107.528 34.25C107.706 33.7879 107.795 33.25 107.795 32.6364C107.795 32.0303 107.708 31.5 107.534 31.0455C107.36 30.5909 107.104 30.2367 106.767 29.983C106.43 29.7292 106.013 29.6023 105.517 29.6023C105.006 29.6023 104.579 29.7348 104.238 30C103.898 30.2652 103.64 30.6269 103.466 31.0852C103.295 31.5436 103.21 32.0606 103.21 32.6364C103.21 33.2197 103.297 33.7443 103.471 34.2102C103.646 34.6761 103.903 35.0455 104.244 35.3182C104.589 35.5871 105.013 35.7216 105.517 35.7216ZM114.758 37.1705C114.053 37.1705 113.424 36.9905 112.871 36.6307C112.322 36.267 111.89 35.75 111.576 35.0795C111.265 34.4053 111.11 33.5966 111.11 32.6534C111.11 31.7102 111.267 30.9034 111.581 30.233C111.9 29.5625 112.335 29.0492 112.888 28.6932C113.441 28.3371 114.068 28.1591 114.769 28.1591C115.311 28.1591 115.746 28.25 116.076 28.4318C116.409 28.6098 116.667 28.8182 116.848 29.0568C117.034 29.2955 117.178 29.5057 117.28 29.6875H117.383V25.3636H119.081V37H117.422V35.642H117.28C117.178 35.8277 117.03 36.0398 116.837 36.2784C116.648 36.517 116.386 36.7254 116.053 36.9034C115.72 37.0814 115.288 37.1705 114.758 37.1705ZM115.133 35.7216C115.621 35.7216 116.034 35.5928 116.371 35.3352C116.712 35.0739 116.97 34.7121 117.144 34.25C117.322 33.7879 117.411 33.25 117.411 32.6364C117.411 32.0303 117.324 31.5 117.15 31.0455C116.975 30.5909 116.72 30.2367 116.383 29.983C116.045 29.7292 115.629 29.6023 115.133 29.6023C114.621 29.6023 114.195 29.7348 113.854 30C113.513 30.2652 113.256 30.6269 113.081 31.0852C112.911 31.5436 112.826 32.0606 112.826 32.6364C112.826 33.2197 112.913 33.7443 113.087 34.2102C113.261 34.6761 113.519 35.0455 113.86 35.3182C114.204 35.5871 114.629 35.7216 115.133 35.7216ZM129.014 28.2727V29.6364H124.247V28.2727H129.014ZM125.526 26.1818H127.225V34.4375C127.225 34.767 127.274 35.0152 127.372 35.1818C127.471 35.3447 127.598 35.4564 127.753 35.517C127.912 35.5739 128.084 35.6023 128.27 35.6023C128.406 35.6023 128.526 35.5928 128.628 35.5739C128.73 35.5549 128.81 35.5398 128.867 35.5284L129.173 36.9318C129.075 36.9697 128.935 37.0076 128.753 37.0455C128.571 37.0871 128.344 37.1098 128.071 37.1136C127.624 37.1212 127.208 37.0417 126.821 36.875C126.435 36.7083 126.122 36.4508 125.884 36.1023C125.645 35.7538 125.526 35.3163 125.526 34.7898V26.1818ZM134.076 37.1761C133.258 37.1761 132.544 36.9886 131.934 36.6136C131.324 36.2386 130.851 35.714 130.513 35.0398C130.176 34.3655 130.008 33.5777 130.008 32.6761C130.008 31.7708 130.176 30.9792 130.513 30.3011C130.851 29.6231 131.324 29.0966 131.934 28.7216C132.544 28.3466 133.258 28.1591 134.076 28.1591C134.894 28.1591 135.608 28.3466 136.218 28.7216C136.828 29.0966 137.301 29.6231 137.638 30.3011C137.976 30.9792 138.144 31.7708 138.144 32.6761C138.144 33.5777 137.976 34.3655 137.638 35.0398C137.301 35.714 136.828 36.2386 136.218 36.6136C135.608 36.9886 134.894 37.1761 134.076 37.1761ZM134.082 35.75C134.612 35.75 135.051 35.6098 135.4 35.3295C135.748 35.0492 136.006 34.6761 136.173 34.2102C136.343 33.7443 136.428 33.2311 136.428 32.6705C136.428 32.1136 136.343 31.6023 136.173 31.1364C136.006 30.6667 135.748 30.2898 135.4 30.0057C135.051 29.7216 134.612 29.5795 134.082 29.5795C133.548 29.5795 133.104 29.7216 132.752 30.0057C132.404 30.2898 132.144 30.6667 131.974 31.1364C131.807 31.6023 131.724 32.1136 131.724 32.6705C131.724 33.2311 131.807 33.7443 131.974 34.2102C132.144 34.6761 132.404 35.0492 132.752 35.3295C133.104 35.6098 133.548 35.75 134.082 35.75ZM147.151 37.1761C146.306 37.1761 145.579 36.9848 144.969 36.6023C144.363 36.2159 143.897 35.6837 143.571 35.0057C143.246 34.3277 143.083 33.5511 143.083 32.6761C143.083 31.7898 143.249 31.0076 143.583 30.3295C143.916 29.6477 144.386 29.1155 144.992 28.733C145.598 28.3504 146.312 28.1591 147.134 28.1591C147.797 28.1591 148.388 28.2822 148.907 28.5284C149.426 28.7708 149.844 29.1117 150.162 29.5511C150.484 29.9905 150.676 30.5038 150.736 31.0909H149.083C148.992 30.6818 148.784 30.3295 148.458 30.0341C148.136 29.7386 147.704 29.5909 147.162 29.5909C146.689 29.5909 146.274 29.7159 145.918 29.9659C145.566 30.2121 145.291 30.5644 145.094 31.0227C144.897 31.4773 144.799 32.0152 144.799 32.6364C144.799 33.2727 144.895 33.822 145.088 34.2841C145.282 34.7462 145.554 35.1042 145.907 35.358C146.263 35.6117 146.681 35.7386 147.162 35.7386C147.484 35.7386 147.776 35.6799 148.037 35.5625C148.303 35.4413 148.524 35.2689 148.702 35.0455C148.884 34.822 149.011 34.553 149.083 34.2386H150.736C150.676 34.803 150.492 35.3068 150.185 35.75C149.878 36.1932 149.467 36.5417 148.952 36.7955C148.441 37.0492 147.84 37.1761 147.151 37.1761ZM154.693 37.1932C154.14 37.1932 153.64 37.0909 153.193 36.8864C152.746 36.678 152.392 36.3769 152.13 35.983C151.873 35.589 151.744 35.1061 151.744 34.5341C151.744 34.0417 151.839 33.6364 152.028 33.3182C152.217 33 152.473 32.7481 152.795 32.5625C153.117 32.3769 153.477 32.2367 153.875 32.142C154.272 32.0473 154.678 31.9754 155.09 31.9261C155.613 31.8655 156.037 31.8163 156.363 31.7784C156.689 31.7367 156.926 31.6705 157.073 31.5795C157.221 31.4886 157.295 31.3409 157.295 31.1364V31.0966C157.295 30.6004 157.155 30.2159 156.875 29.9432C156.598 29.6705 156.185 29.5341 155.636 29.5341C155.064 29.5341 154.613 29.661 154.284 29.9148C153.958 30.1648 153.733 30.4432 153.608 30.75L152.011 30.3864C152.2 29.8561 152.477 29.428 152.84 29.1023C153.208 28.7727 153.63 28.5341 154.108 28.3864C154.585 28.2348 155.087 28.1591 155.613 28.1591C155.962 28.1591 156.331 28.2008 156.721 28.2841C157.115 28.3636 157.483 28.5114 157.823 28.7273C158.168 28.9432 158.45 29.2519 158.67 29.6534C158.89 30.0511 159 30.5682 159 31.2045V37H157.34V35.8068H157.272C157.162 36.0265 156.998 36.2424 156.778 36.4545C156.558 36.6667 156.276 36.8428 155.931 36.983C155.587 37.1231 155.174 37.1932 154.693 37.1932ZM155.062 35.8295C155.532 35.8295 155.933 35.7367 156.267 35.5511C156.604 35.3655 156.859 35.1231 157.034 34.8239C157.212 34.5208 157.301 34.197 157.301 33.8523V32.7273C157.24 32.7879 157.123 32.8447 156.948 32.8977C156.778 32.947 156.583 32.9905 156.363 33.0284C156.144 33.0625 155.929 33.0947 155.721 33.125C155.513 33.1515 155.339 33.1742 155.198 33.1932C154.869 33.2348 154.568 33.3049 154.295 33.4034C154.026 33.5019 153.81 33.6439 153.647 33.8295C153.488 34.0114 153.409 34.2538 153.409 34.5568C153.409 34.9773 153.564 35.2955 153.875 35.5114C154.185 35.7235 154.581 35.8295 155.062 35.8295ZM160.862 37V28.2727H162.504V29.6591H162.595C162.754 29.1894 163.035 28.8201 163.436 28.5511C163.842 28.2784 164.3 28.142 164.811 28.142C164.917 28.142 165.042 28.1458 165.186 28.1534C165.334 28.161 165.449 28.1705 165.533 28.1818V29.8068C165.465 29.7879 165.343 29.767 165.169 29.7443C164.995 29.7178 164.821 29.7045 164.646 29.7045C164.245 29.7045 163.887 29.7898 163.573 29.9602C163.262 30.1269 163.016 30.3598 162.834 30.6591C162.652 30.9545 162.561 31.2917 162.561 31.6705V37H160.862ZM171.192 28.2727V29.6364H166.425V28.2727H171.192ZM167.704 26.1818H169.403V34.4375C169.403 34.767 169.452 35.0152 169.55 35.1818C169.649 35.3447 169.776 35.4564 169.931 35.517C170.09 35.5739 170.263 35.6023 170.448 35.6023C170.585 35.6023 170.704 35.5928 170.806 35.5739C170.908 35.5549 170.988 35.5398 171.045 35.5284L171.352 36.9318C171.253 36.9697 171.113 37.0076 170.931 37.0455C170.749 37.0871 170.522 37.1098 170.249 37.1136C169.802 37.1212 169.386 37.0417 168.999 36.875C168.613 36.7083 168.3 36.4508 168.062 36.1023C167.823 35.7538 167.704 35.3163 167.704 34.7898V26.1818Z" fill="#FEFEFE"/>
</g>
<defs>
<filter id="filter0_d_475_5479" x="0" y="0" width="262" height="78" filterUnits="userSpaceOnUse" color-interpolation-filters="sRGB">
<feFlood flood-opacity="0" result="BackgroundImageFix"/>
<feColorMatrix in="SourceAlpha" type="matrix" values="0 0 0 0 0 0 0 0 0 0 0 0 0 0 0 0 0 0 127 0" result="hardAlpha"/>
<feOffset dy="8"/>
<feGaussianBlur stdDeviation="8"/>
<feColorMatrix type="matrix" values="0 0 0 0 0 0 0 0 0 0 0 0 0 0 0 0 0 0 0.0364401 0"/>
<feBlend mode="normal" in2="BackgroundImageFix" result="effect1_dropShadow_475_5479"/>
<feBlend mode="normal" in="SourceGraphic" in2="effect1_dropShadow_475_5479" result="shape"/>
</filter>
</defs>
</svg>
